<?xml version="1.0" encoding="UTF-8" standalone="no"?>
<!-- Created with Inkscape (http://www.inkscape.org/) -->

<svg xmlns:dc="http://purl.org/dc/elements/1.1/" xmlns:cc="http://creativecommons.org/ns#" xmlns:rdf="http://www.w3.org/1999/02/22-rdf-syntax-ns#" xmlns:svg="http://www.w3.org/2000/svg" xmlns="http://www.w3.org/2000/svg" xmlns:sodipodi="http://sodipodi.sourceforge.net/DTD/sodipodi-0.dtd" xmlns:inkscape="http://www.inkscape.org/namespaces/inkscape" width="744.09448819" height="1052.3622047" id="svg2" version="1.1" inkscape:version="0.48.2 r9819" sodipodi:docname="map.svg">
    <defs id="defs4" />
    <sodipodi:namedview id="base" pagecolor="#ffffff" bordercolor="#666666" borderopacity="1.0" inkscape:pageopacity="0.0" inkscape:pageshadow="2" inkscape:zoom="0.7" inkscape:cx="381.75896" inkscape:cy="588.1663" inkscape:document-units="px" inkscape:current-layer="layer1" showgrid="false" inkscape:window-width="1920" inkscape:window-height="1028" inkscape:window-x="-8" inkscape:window-y="-8" inkscape:window-maximized="1" />
    <metadata id="metadata7">
        <rdf:RDF>
            <cc:Work rdf:about="">
                <dc:format>image/svg+xml</dc:format>
                <dc:type rdf:resource="http://purl.org/dc/dcmitype/StillImage" />
                <dc:title />
            </cc:Work>
        </rdf:RDF>
    </metadata>
    <g inkscape:label="Layer 1" inkscape:groupmode="layer" id="layer1">
        <rect style="fill:#000000;fill-opacity:1;fill-rule:nonzero;stroke:none" id="rect2985" width="52" height="80" x="431.30753" y="238.92686" />
        <path style="fill:none;stroke:#000000;stroke-width:1px;stroke-linecap:butt;stroke-linejoin:miter;stroke-opacity:1" d="M -151.4375,-73.34375 287.15625,-57.625 1032.8438,19.5 1360,-20.5 1477.1562,442.375 1418.5625,676.65625 1322.8438,792.375 1332.8438,889.5 1417.1562,1075.2188 1175.7188,1103.7812 948.5625,1029.5 734.90625,1033.7812 654.28125,970.9375 521.4375,899.5 425.75,891.34375 421.4375,822.375 257.15625,818.0625 265.625,893.34375 250,893.78125 5.71875,940.9375 -107.15625,1028.0625 -119.375,1050.9062 -477.15625,1058.0625 -600,935.21875 -770,-33.34375 -568.5625,8.0625 -151.4375,-73.34375 z" id="path3013" />
        <path style="fill:none;stroke:#000000;stroke-width:1px;stroke-linecap:butt;stroke-linejoin:miter;stroke-opacity:1" d="M 479.38686,763.90059 564.29234,787.66042 666.82086,768.54361 839.37258,720.80511 834.2902,659.17184 724.44477,627.30313 631.16799,656.21984 z" id="path2986" inkscape:connector-curvature="0" />
        <path style="fill:none;stroke:#000000;stroke-width:1.10997093px;stroke-linecap:butt;stroke-linejoin:miter;stroke-opacity:1" d="M 220.15026,565.38596 105.22995,536.46925 -30.103532,568.33796 -36.365232,629.97123 176.22465,677.70973 302.54344,696.82654 407.15,673.06671 z" id="path2986-1" inkscape:connector-curvature="0" />
        <path style="fill:none;stroke:#000000;stroke-width:1px;stroke-linecap:butt;stroke-linejoin:miter;stroke-opacity:1" d="M 414.29286,553.06671 499.19834,576.82654 601.72686,557.70973 774.27858,509.97123 769.1962,448.33796 659.35077,416.46925 566.07399,445.38596 z" id="path2986-7" inkscape:connector-curvature="0" />
        <path style="fill:none;stroke:#000000;stroke-width:1px;stroke-linecap:butt;stroke-linejoin:miter;stroke-opacity:1" d="M 935.71429,445.21932 914.28572,508.07646 928.57143,559.50504 982.85714,685.21932 1138.5715,890.93361 1237.1429,929.50504 1044.2857,379.50503 z" id="path3019" inkscape:connector-curvature="0" />
        <path style="fill:none;stroke:#000000;stroke-width:1px;stroke-linecap:butt;stroke-linejoin:miter;stroke-opacity:1" d="M -532.85714,479.50504 -474.28572,539.50504 -391.42857,530.93361 -314.28572,489.50504 -220,545.21932 -138.57143,559.50504 -151.42857,502.36218 -172.85714,466.64789 -160,448.07647 -111.42857,445.21932 -30,492.36218 12.857143,498.07647 30,480.93361 -10,462.36218 -30,423.79075 -181.42857,363.79075 -251.42857,369.50504 -252.85714,320.93361 -297.14286,302.36218 -352.85714,253.79075 -430,193.79075 -491.42857,196.64789 -562.85714,213.79075 -595.71429,239.50504 z" id="path3021" inkscape:connector-curvature="0" />
    </g>
</svg>
