<?xml version="1.0" encoding="UTF-8" standalone="no"?>
<!-- Created with Inkscape (http://www.inkscape.org/) -->

<svg xmlns:dc="http://purl.org/dc/elements/1.1/" xmlns:cc="http://creativecommons.org/ns#" xmlns:rdf="http://www.w3.org/1999/02/22-rdf-syntax-ns#" xmlns:svg="http://www.w3.org/2000/svg" xmlns="http://www.w3.org/2000/svg" xmlns:sodipodi="http://sodipodi.sourceforge.net/DTD/sodipodi-0.dtd" xmlns:inkscape="http://www.inkscape.org/namespaces/inkscape" width="744.09448819" height="1052.3622047" id="svg2" version="1.1" inkscape:version="0.48.2 r9819" sodipodi:docname="map.svg">
    <defs id="defs4" />
    <sodipodi:namedview id="base" pagecolor="#ffffff" bordercolor="#666666" borderopacity="1.0" inkscape:pageopacity="0.0" inkscape:pageshadow="2" inkscape:zoom="0.7" inkscape:cx="381.75896" inkscape:cy="604.39548" inkscape:document-units="px" inkscape:current-layer="layer1" showgrid="false" inkscape:window-width="1920" inkscape:window-height="1028" inkscape:window-x="-8" inkscape:window-y="-8" inkscape:window-maximized="1" />
    <metadata id="metadata7">
        <rdf:RDF>
            <cc:Work rdf:about="">
                <dc:format>image/svg+xml</dc:format>
                <dc:type rdf:resource="http://purl.org/dc/dcmitype/StillImage" />
                <dc:title />
            </cc:Work>
        </rdf:RDF>
    </metadata>
    <g inkscape:label="Layer 1" inkscape:groupmode="layer" id="layer1">
        <rect style="fill:#000000;fill-opacity:1;fill-rule:nonzero;stroke:none" id="rect2985" width="52" height="80" x="431.30753" y="238.92686" />
        <path style="fill:none;stroke:#000000;stroke-width:1px;stroke-linecap:butt;stroke-linejoin:miter;stroke-opacity:1" d="M -600,935.21933 -770,-33.352107 -568.57143,8.0764647 -151.42857,-73.352107 287.14286,-57.637821 1032.8571,19.505036 1360,-20.494964 1477.1429,442.36218 1418.5714,676.6479 1322.8571,792.36218 1332.8571,889.50504 1417.1429,1075.2193 1175.7143,1103.7908 948.57143,1029.505 -477.14286,1058.0765 z" id="path3013" inkscape:connector-curvature="0" />
        <path style="fill:none;stroke:#000000;stroke-width:1px;stroke-linecap:butt;stroke-linejoin:miter;stroke-opacity:1" d="M 479.38686,763.90059 564.29234,787.66042 666.82086,768.54361 839.37258,720.80511 834.2902,659.17184 724.44477,627.30313 631.16799,656.21984 z" id="path2986" inkscape:connector-curvature="0" />
        <path style="fill:none;stroke:#000000;stroke-width:1.10997093px;stroke-linecap:butt;stroke-linejoin:miter;stroke-opacity:1" d="M 220.15026,565.38596 105.22995,536.46925 -30.103532,568.33796 -36.365232,629.97123 176.22465,677.70973 302.54344,696.82654 407.15,673.06671 z" id="path2986-1" inkscape:connector-curvature="0" />
        <path style="fill:none;stroke:#000000;stroke-width:1px;stroke-linecap:butt;stroke-linejoin:miter;stroke-opacity:1" d="M 414.29286,553.06671 499.19834,576.82654 601.72686,557.70973 774.27858,509.97123 769.1962,448.33796 659.35077,416.46925 566.07399,445.38596 z" id="path2986-7" inkscape:connector-curvature="0" />
        <path style="fill:none;stroke:#000000;stroke-width:1px;stroke-linecap:butt;stroke-linejoin:miter;stroke-opacity:1" d="M 751.42857,1046.6479 654.28572,970.93361 521.42857,899.50504 404.28572,889.50504 250,893.79075 5.7142857,940.93361 -107.14286,1028.0765 -150,1108.0765 z" id="path3015" inkscape:connector-curvature="0" />
        <path style="fill:none;stroke:#000000;stroke-width:1px;stroke-linecap:butt;stroke-linejoin:miter;stroke-opacity:1" d="M 427.14286,913.79075 421.42857,822.36218 257.14286,818.07647 270,932.36218 z" id="path3017" inkscape:connector-curvature="0" />
        <path style="fill:none;stroke:#000000;stroke-width:1px;stroke-linecap:butt;stroke-linejoin:miter;stroke-opacity:1" d="M 935.71429,445.21932 914.28572,508.07646 928.57143,559.50504 982.85714,685.21932 1138.5715,890.93361 1237.1429,929.50504 1044.2857,379.50503 z" id="path3019" inkscape:connector-curvature="0" />
        <path style="fill:none;stroke:#000000;stroke-width:1px;stroke-linecap:butt;stroke-linejoin:miter;stroke-opacity:1" d="M -532.85714,479.50504 -474.28572,539.50504 -391.42857,530.93361 -314.28572,489.50504 -220,545.21932 -138.57143,559.50504 -151.42857,502.36218 -172.85714,466.64789 -160,448.07647 -111.42857,445.21932 -30,492.36218 12.857143,498.07647 30,480.93361 -10,462.36218 -30,423.79075 -181.42857,363.79075 -251.42857,369.50504 -252.85714,320.93361 -297.14286,302.36218 -352.85714,253.79075 -430,193.79075 -491.42857,196.64789 -562.85714,213.79075 -595.71429,239.50504 z" id="path3021" inkscape:connector-curvature="0" />
    </g>
</svg>
